Coordinates
version=1
nRows=16
nColumns=22
inDegrees=yes

Units are S.I. units (second, meters, Newtons, ...)
If the header above contains a line with 'inDegrees', this indicates whether rotational values are in degrees (yes) or radians (no).

endheader
time	pelvis_tilt	pelvis_list	pelvis_rotation	pelvis_tx	pelvis_ty	pelvis_tz	hip_flexion_r	hip_adduction_r	hip_rotation_r	knee_angle_r	ankle_angle_r	subtalar_angle_r	hip_flexion_l	hip_adduction_l	hip_rotation_l	knee_angle_l	ankle_angle_l	subtalar_angle_l	lumbar_extension	lumbar_bending	lumbar_rotation
      2.00000000	      5.16757419	     -4.26760468	     45.97768730	      0.65113687	      0.99198933	      0.58724982	     -9.48016815	     10.15121081	    -14.30246575	    -11.12230511	     17.29647479	      1.75946442	     25.88604094	     -4.90826569	    -17.95423328	    -18.69837511	      9.61768131	      2.38131240	    -18.68895429	      7.28797475	     13.16871449
      2.01000000	      5.20375274	     -4.33682236	     46.05000942	      0.65623162	      0.99069703	      0.58209572	     -9.77621199	     10.19839578	    -14.29036832	    -11.40050340	     17.46175346	      2.04648907	     25.72975040	     -4.84776837	    -18.04756864	    -18.59436194	      9.52064629	      2.30253313	    -18.55060293	      7.20220317	     13.37599990
      2.02000000	      5.21843720	     -4.37925539	     46.11635657	      0.66140264	      0.98945526	      0.57681532	    -10.05354589	     10.19742057	    -14.26005911	    -11.73826948	     17.59640800	      2.40249106	     25.55392399	     -4.77137818	    -18.07397357	    -18.62041080	      9.27480644	      2.05261665	    -18.40510284	      7.06378608	     13.56308268
      2.03000000	      5.23232589	     -4.40730101	     46.18825435	      0.66663319	      0.98829130	      0.57141604	    -10.29904609	     10.17035272	    -14.24040835	    -12.17008301	     17.70052635	      2.83000739	     25.35787067	     -4.70385450	    -18.05071259	    -18.75226869	      8.91519311	      1.54580675	    -18.26209298	      6.90569903	     13.70679492
      2.04000000	      5.21564226	     -4.40743679	     46.27324184	      0.67192057	      0.98722206	      0.56591692	    -10.51153572	     10.09635035	    -14.19587119	    -12.66789363	     17.78362372	      3.24370175	     25.18079875	     -4.62444232	    -18.01086932	    -19.01791660	      8.35137740	      0.86604311	    -18.10993839	      6.68968001	     13.79141366
      2.05000000	      5.18264272	     -4.37245282	     46.38357401	      0.67724679	      0.98629827	      0.56028891	    -10.70954481	      9.97995394	    -14.15772896	    -13.22644351	     17.82267060	      3.71509773	     25.01981108	     -4.53710859	    -17.95607647	    -19.40970255	      7.64041685	     -0.02378927	    -17.96404079	      6.42623569	     13.82823004
      2.06000000	      5.12138689	     -4.29284556	     46.51614131	      0.68258894	      0.98555757	      0.55453224	    -10.87490013	      9.80259696	    -14.11581141	    -13.87310979	     17.79624283	      4.21745206	     24.87668276	     -4.42448406	    -17.88511775	    -19.90818844	      6.85423226	     -0.97587051	    -17.82733360	      6.10787983	     13.78393094
      2.07000000	      5.04930968	     -4.17165177	     46.69077176	      0.68792757	      0.98502465	      0.54864757	    -11.02259569	      9.58757842	    -14.07756238	    -14.59516279	     17.68314585	      4.78720291	     24.75120176	     -4.29191142	    -17.77171063	    -20.50741845	      6.09098504	     -1.93322121	    -17.71184798	      5.74952257	     13.66997473
      2.08000000	      4.96112905	     -4.00915626	     46.90551842	      0.69324884	      0.98471528	      0.54261393	    -11.14343907	      9.32869517	    -14.03808057	    -15.40148058	     17.46846201	      5.43913192	     24.63331313	     -4.12132375	    -17.58691552	    -21.17694943	      5.44463718	     -2.80325890	    -17.61320579	      5.35273535	     13.48617392
      2.09000000	      4.84295006	     -3.80021694	     47.17091887	      0.69850118	      0.98461052	      0.53641227	    -11.20888063	      9.00493878	    -14.04045025	    -16.33423648	     17.20621182	      6.15333397	     24.50950410	     -3.87235617	    -17.28704883	    -21.87266060	      4.98039266	     -3.49468776	    -17.52598968	      4.90838523	     13.22883081
      2.10000000	      4.75140509	     -3.57621280	     47.46083819	      0.70370932	      0.98474283	      0.53006987	    -11.24839831	      8.67892954	    -14.03095112	    -17.36549728	     16.77329962	      7.04697228	     24.36226195	     -3.61985712	    -16.90596988	    -22.60492927	      4.73725962	     -4.12618981	    -17.47144186	      4.48416046	     12.97508272
      2.11000000	      4.64444445	     -3.33164908	     47.78051283	      0.70884987	      0.98506260	      0.52356392	    -11.22353637	      8.31698563	    -13.98105290	    -18.52073700	     16.23284328	      8.05837723	     24.17872689	     -3.30632525	    -16.44216344	    -23.29688692	      4.68661369	     -4.62290163	    -17.41643625	      4.04671337	     12.66990074
      2.12000000	      4.53163068	     -3.08116983	     48.12538391	      0.71388725	      0.98553785	      0.51689739	    -11.11173402	      7.92506079	    -13.93086318	    -19.82954940	     15.57689628	      9.16987717	     23.94917819	     -2.94617367	    -15.91754136	    -23.91996553	      4.76371102	     -5.00889349	    -17.35694797	      3.61693035	     12.35723283
      2.13000000	      4.43315581	     -2.84669339	     48.45416098	      0.71889674	      0.98614835	      0.51013140	    -10.92016143	      7.53694125	    -13.77744360	    -21.27167816	     14.76100577	     10.44377586	     23.66421722	     -2.59998507	    -15.43511285	    -24.46329301	      4.98895963	     -5.36909607	    -17.28777940	      3.21487532	     12.07456672
      2.14000000	      4.32725068	     -2.63227832	     48.78849468	      0.72378473	      0.98682349	      0.50325876	    -10.60329209	      7.12576644	    -13.61973142	    -22.88980701	     13.84285466	     11.73079622	     23.33769791	     -2.23342964	    -14.95310754	    -24.89867734	      5.22124540	     -5.69489719	    -17.19067658	      2.83706590	     11.81983155
      2.15000000	      4.23648367	     -2.45470311	     49.08450822	      0.72862294	      0.98754180	      0.49633195	    -10.17753085	      6.72336212	    -13.36009395	    -24.65415690	     12.79655815	     13.05020888	     22.96498028	     -1.90346833	    -14.54938353	    -25.23634044	      5.51777840	     -6.06274925	    -17.06538806	      2.50864835	     11.62111313
